<svg xmlns="http://www.w3.org/2000/svg" xmlns:xlink="http://www.w3.org/1999/xlink" zoomAndPan="magnify" preserveAspectRatio="xMidYMid meet" version="1.0" viewBox="81.35 175.62 240.1 43.13"><defs><g/></defs><path fill="#ffffff" d="M 134.019531 186.855469 C 133.5 187.660156 132.792969 187.023438 133.242188 186.320312 C 149.878906 160.332031 160.3125 195.585938 193.753906 192.625 C 245.242188 188.070312 288.285156 173.527344 320.320312 186.046875 C 322.554688 186.921875 320.980469 188.753906 319.101562 187.898438 C 292.4375 175.777344 242.90625 188.46875 193.53125 193.609375 C 160.074219 197.089844 150.617188 161.292969 134.019531 186.855469 Z M 134.019531 186.855469 " fill-opacity="1" fill-rule="nonzero"/><g fill="#ffffff" fill-opacity="1"><g transform="translate(83.156249, 200.999987)"><g><path d="M 8.761719 -23.878906 C -0.960938 -23.878906 -6.179688 2.878906 2.941406 5.398438 C 4.5 5.820312 6.421875 5.398438 8.339844 3.960938 C 13.738281 -0.0585938 21.839844 -9.78125 25.140625 -14.101562 C 25.140625 -14.398438 24.359375 -14.398438 24.121094 -14.160156 C 21.539062 -10.859375 12.421875 0.238281 7.261719 3.660156 C 5.398438 4.859375 3.78125 5.101562 2.941406 4.558594 C -1.621094 2.640625 4.621094 -20.761719 8.761719 -22.738281 C 10.921875 -23.761719 14.398438 -18 9 -15.421875 C 9.480469 -15.421875 9.71875 -15.421875 10.078125 -15.421875 C 14.460938 -17.039062 13.019531 -23.878906 8.761719 -23.878906 Z M 8.761719 -23.878906 "/></g></g></g><g fill="#ffffff" fill-opacity="1"><g transform="translate(107.216226, 200.999987)"><g><path d="M 5.101562 15.121094 C 12.960938 13.441406 13.378906 5.101562 10.378906 -1.800781 C 14.761719 -3.539062 21.601562 -6.839844 26.761719 -14.039062 C 27.058594 -14.460938 26.339844 -14.699219 25.621094 -14.101562 C 21.660156 -8.339844 15.121094 -4.5 10.019531 -2.519531 C 7.558594 -7.558594 5.519531 -10.5 3.421875 -14.460938 C 0.660156 -19.621094 3.359375 -23.398438 7.199219 -24.421875 C 10.679688 -25.320312 13.980469 -20.761719 10.621094 -16.441406 L 11.761719 -16.441406 C 14.820312 -21 11.878906 -25.859375 7.140625 -25.320312 C 1.078125 -24.660156 -2.761719 -19.261719 0.839844 -12 C 2.761719 -8.160156 5.640625 -3.300781 7.019531 -0.839844 C -6.480469 3.71875 -3.121094 16.859375 5.101562 15.121094 Z M 5.519531 14.160156 C -1.800781 16.679688 -5.519531 4.558594 7.320312 -0.121094 C 10.078125 6.480469 8.460938 13.140625 5.519531 14.160156 Z M 5.519531 14.160156 "/></g></g></g><g fill="#ffffff" fill-opacity="1"><g transform="translate(135.026589, 218.414486)"><g><path d="M 8.09375 -0.71875 C 7.820312 -0.53125 7.445312 -0.347656 6.96875 -0.171875 C 6.488281 0.00390625 5.96875 0.09375 5.40625 0.09375 C 4.457031 0.09375 3.625 -0.113281 2.90625 -0.53125 C 2.195312 -0.945312 1.648438 -1.503906 1.265625 -2.203125 C 0.878906 -2.910156 0.6875 -3.6875 0.6875 -4.53125 C 0.6875 -5.445312 0.878906 -6.265625 1.265625 -6.984375 C 1.648438 -7.710938 2.1875 -8.28125 2.875 -8.6875 C 3.5625 -9.09375 4.34375 -9.296875 5.21875 -9.296875 C 5.757812 -9.296875 6.257812 -9.222656 6.71875 -9.078125 C 7.175781 -8.941406 7.582031 -8.765625 7.9375 -8.546875 L 7.359375 -7.171875 C 6.671875 -7.648438 5.972656 -7.890625 5.265625 -7.890625 C 4.734375 -7.890625 4.234375 -7.742188 3.765625 -7.453125 C 3.296875 -7.160156 2.921875 -6.765625 2.640625 -6.265625 C 2.359375 -5.765625 2.21875 -5.210938 2.21875 -4.609375 C 2.21875 -3.984375 2.347656 -3.414062 2.609375 -2.90625 C 2.867188 -2.40625 3.234375 -2.015625 3.703125 -1.734375 C 4.179688 -1.453125 4.734375 -1.3125 5.359375 -1.3125 C 5.804688 -1.3125 6.207031 -1.378906 6.5625 -1.515625 C 6.925781 -1.648438 7.226562 -1.820312 7.46875 -2.03125 Z M 8.09375 -0.71875 "/></g></g></g><g fill="#ffffff" fill-opacity="1"><g transform="translate(147.064299, 218.414486)"><g><path d="M 8.75 0 L 7.265625 0 L 7.265625 -3.921875 L 2.75 -3.921875 L 2.75 0 L 1.265625 0 L 1.265625 -9.203125 L 2.75 -9.203125 L 2.75 -5.328125 L 7.265625 -5.328125 L 7.265625 -9.203125 L 8.75 -9.203125 Z M 8.75 0 "/></g></g></g><g fill="#ffffff" fill-opacity="1"><g transform="translate(160.328519, 218.414486)"><g><path d="M 5.984375 -2.15625 L 2.640625 -2.15625 L 1.75 0 L 0.296875 0 L 4.375 -9.578125 L 4.46875 -9.578125 L 8.53125 0 L 6.84375 0 Z M 5.5 -3.421875 L 4.34375 -6.328125 L 3.15625 -3.421875 Z M 5.5 -3.421875 "/></g></g></g><g fill="#ffffff" fill-opacity="1"><g transform="translate(172.416812, 218.414486)"><g><path d="M 2.75 -9.203125 L 2.75 0 L 1.265625 0 L 1.265625 -9.203125 Z M 2.75 -9.203125 "/></g></g></g><g fill="#ffffff" fill-opacity="1"><g transform="translate(179.674909, 218.414486)"><g><path d="M 6.765625 -9.203125 L 6.765625 -7.78125 L 4.390625 -7.78125 L 4.390625 0 L 2.921875 0 L 2.921875 -7.78125 L 0.609375 -7.78125 L 0.609375 -9.203125 Z M 6.765625 -9.203125 "/></g></g></g><g fill="#ffffff" fill-opacity="1"><g transform="translate(190.296433, 218.414486)"><g><path d="M 5.984375 -2.15625 L 2.640625 -2.15625 L 1.75 0 L 0.296875 0 L 4.375 -9.578125 L 4.46875 -9.578125 L 8.53125 0 L 6.84375 0 Z M 5.5 -3.421875 L 4.34375 -6.328125 L 3.15625 -3.421875 Z M 5.5 -3.421875 "/></g></g></g><g fill="#ffffff" fill-opacity="1"><g transform="translate(202.384723, 218.414486)"><g><path d="M 9.390625 -9.203125 L 9.390625 0.328125 L 9.359375 0.328125 L 2.71875 -6.109375 L 2.75 0 L 1.265625 0 L 1.265625 -9.515625 L 1.34375 -9.515625 L 7.953125 -3.015625 L 7.921875 -9.203125 Z M 9.390625 -9.203125 "/></g></g></g><g fill="#ffffff" fill-opacity="1"><g transform="translate(216.30646, 218.414486)"><g><path d="M 8.609375 -9.203125 L 5.15625 -2.984375 L 5.15625 0 L 3.6875 0 L 3.6875 -2.984375 L 0.296875 -9.203125 L 2.09375 -9.203125 L 4.46875 -4.671875 L 6.796875 -9.203125 Z M 8.609375 -9.203125 "/></g></g></g><g fill="#ffffff" fill-opacity="1"><g transform="translate(228.457968, 218.414486)"><g><path d="M 5.984375 -2.15625 L 2.640625 -2.15625 L 1.75 0 L 0.296875 0 L 4.375 -9.578125 L 4.46875 -9.578125 L 8.53125 0 L 6.84375 0 Z M 5.5 -3.421875 L 4.34375 -6.328125 L 3.15625 -3.421875 Z M 5.5 -3.421875 "/></g></g></g><g fill="#ffffff" fill-opacity="1"><g transform="translate(240.546258, 218.414486)"><g/></g></g><g fill="#ffffff" fill-opacity="1"><g transform="translate(247.84229, 218.414486)"><g><path d="M 6.09375 -7.328125 C 5.300781 -7.742188 4.597656 -7.953125 3.984375 -7.953125 C 3.523438 -7.953125 3.160156 -7.847656 2.890625 -7.640625 C 2.628906 -7.441406 2.5 -7.164062 2.5 -6.8125 C 2.5 -6.46875 2.664062 -6.175781 3 -5.9375 C 3.332031 -5.707031 3.800781 -5.484375 4.40625 -5.265625 C 4.851562 -5.097656 5.238281 -4.910156 5.5625 -4.703125 C 5.894531 -4.503906 6.164062 -4.226562 6.375 -3.875 C 6.582031 -3.519531 6.6875 -3.070312 6.6875 -2.53125 C 6.6875 -2.039062 6.5625 -1.597656 6.3125 -1.203125 C 6.070312 -0.804688 5.71875 -0.488281 5.25 -0.25 C 4.789062 -0.0195312 4.242188 0.09375 3.609375 0.09375 C 3.054688 0.09375 2.507812 0.0078125 1.96875 -0.15625 C 1.425781 -0.332031 0.945312 -0.570312 0.53125 -0.875 L 1.1875 -2.015625 C 1.5 -1.785156 1.867188 -1.59375 2.296875 -1.4375 C 2.722656 -1.28125 3.113281 -1.203125 3.46875 -1.203125 C 3.914062 -1.203125 4.304688 -1.304688 4.640625 -1.515625 C 4.984375 -1.734375 5.15625 -2.066406 5.15625 -2.515625 C 5.15625 -2.867188 5.015625 -3.160156 4.734375 -3.390625 C 4.453125 -3.628906 4.054688 -3.847656 3.546875 -4.046875 C 3.023438 -4.234375 2.59375 -4.421875 2.25 -4.609375 C 1.90625 -4.804688 1.609375 -5.070312 1.359375 -5.40625 C 1.109375 -5.75 0.984375 -6.179688 0.984375 -6.703125 C 0.984375 -7.453125 1.238281 -8.054688 1.75 -8.515625 C 2.257812 -8.972656 2.929688 -9.21875 3.765625 -9.25 C 4.367188 -9.25 4.898438 -9.175781 5.359375 -9.03125 C 5.828125 -8.894531 6.257812 -8.703125 6.65625 -8.453125 Z M 6.09375 -7.328125 "/></g></g></g><g fill="#ffffff" fill-opacity="1"><g transform="translate(258.451168, 218.414486)"><g><path d="M 5.984375 -2.15625 L 2.640625 -2.15625 L 1.75 0 L 0.296875 0 L 4.375 -9.578125 L 4.46875 -9.578125 L 8.53125 0 L 6.84375 0 Z M 5.5 -3.421875 L 4.34375 -6.328125 L 3.15625 -3.421875 Z M 5.5 -3.421875 "/></g></g></g><g fill="#ffffff" fill-opacity="1"><g transform="translate(270.539459, 218.414486)"><g><path d="M 8.578125 -0.84375 C 8.328125 -0.613281 7.890625 -0.398438 7.265625 -0.203125 C 6.640625 -0.00390625 6.0625 0.09375 5.53125 0.09375 C 4.5625 0.09375 3.710938 -0.0976562 2.984375 -0.484375 C 2.253906 -0.867188 1.6875 -1.398438 1.28125 -2.078125 C 0.882812 -2.753906 0.6875 -3.523438 0.6875 -4.390625 C 0.6875 -5.421875 0.898438 -6.304688 1.328125 -7.046875 C 1.753906 -7.796875 2.328125 -8.359375 3.046875 -8.734375 C 3.773438 -9.109375 4.566406 -9.296875 5.421875 -9.296875 C 5.953125 -9.296875 6.453125 -9.234375 6.921875 -9.109375 C 7.398438 -8.992188 7.820312 -8.835938 8.1875 -8.640625 L 7.703125 -7.265625 C 7.453125 -7.421875 7.117188 -7.550781 6.703125 -7.65625 C 6.285156 -7.769531 5.921875 -7.828125 5.609375 -7.828125 C 4.554688 -7.828125 3.726562 -7.535156 3.125 -6.953125 C 2.519531 -6.367188 2.21875 -5.554688 2.21875 -4.515625 C 2.21875 -3.890625 2.359375 -3.335938 2.640625 -2.859375 C 2.921875 -2.390625 3.316406 -2.019531 3.828125 -1.75 C 4.335938 -1.488281 4.921875 -1.359375 5.578125 -1.359375 C 5.867188 -1.359375 6.148438 -1.382812 6.421875 -1.4375 C 6.691406 -1.5 6.921875 -1.582031 7.109375 -1.6875 L 7.109375 -3.203125 L 5.375 -3.203125 L 5.375 -4.625 L 8.578125 -4.625 Z M 8.578125 -0.84375 "/></g></g></g><g fill="#ffffff" fill-opacity="1"><g transform="translate(283.348475, 218.414486)"><g><path d="M 5.984375 -2.15625 L 2.640625 -2.15625 L 1.75 0 L 0.296875 0 L 4.375 -9.578125 L 4.46875 -9.578125 L 8.53125 0 L 6.84375 0 Z M 5.5 -3.421875 L 4.34375 -6.328125 L 3.15625 -3.421875 Z M 5.5 -3.421875 "/></g></g></g><g fill="#ffffff" fill-opacity="1"><g transform="translate(295.436766, 218.414486)"><g><path d="M 6.296875 0 L 4.21875 -3.203125 L 2.75 -3.203125 L 2.75 0 L 1.265625 0 L 1.265625 -9.203125 L 3.859375 -9.203125 C 4.878906 -9.203125 5.695312 -8.941406 6.3125 -8.421875 C 6.9375 -7.898438 7.25 -7.175781 7.25 -6.25 C 7.25 -5.675781 7.128906 -5.144531 6.890625 -4.65625 C 6.648438 -4.175781 6.273438 -3.804688 5.765625 -3.546875 L 8 0 Z M 2.75 -4.609375 L 4.0625 -4.609375 C 4.644531 -4.609375 5.066406 -4.769531 5.328125 -5.09375 C 5.597656 -5.425781 5.734375 -5.789062 5.734375 -6.1875 C 5.734375 -6.425781 5.679688 -6.664062 5.578125 -6.90625 C 5.484375 -7.144531 5.3125 -7.347656 5.0625 -7.515625 C 4.820312 -7.691406 4.503906 -7.78125 4.109375 -7.78125 L 2.75 -7.78125 Z M 2.75 -4.609375 "/></g></g></g></svg>