<svg xmlns="http://www.w3.org/2000/svg" xmlns:xlink="http://www.w3.org/1999/xlink" width="500" zoomAndPan="magnify" viewBox="0 0 375 374.999991" height="500" preserveAspectRatio="xMidYMid meet" version="1.0"><defs><g/><clipPath id="1c449a27aa"><path d="M 37.5 37.5 L 337.5 37.5 L 337.5 337.5 L 37.5 337.5 Z M 37.5 37.5 " clip-rule="nonzero"/></clipPath><clipPath id="a1f595ecbc"><path d="M 142.898438 99.679688 L 145.148438 99.679688 L 145.148438 101.929688 L 142.898438 101.929688 Z M 142.898438 99.679688 " clip-rule="nonzero"/></clipPath><clipPath id="d63718e29d"><path d="M 143 99.679688 L 145 99.679688 L 145 101.929688 L 143 101.929688 Z M 143 99.679688 " clip-rule="nonzero"/></clipPath><clipPath id="3b72d734a4"><path d="M 229.570312 99.679688 L 231.820312 99.679688 L 231.820312 101.929688 L 229.570312 101.929688 Z M 229.570312 99.679688 " clip-rule="nonzero"/></clipPath></defs><g clip-path="url(#1c449a27aa)"><path fill="#ffffff" d="M 37.5 187.5 C 37.5 104.8125 104.8125 37.5 187.5 37.5 C 270.183594 37.5 337.5 104.8125 337.5 187.5 C 337.5 270.183594 270.183594 337.5 187.5 337.5 C 104.8125 337.5 37.5 270.183594 37.5 187.5 Z M 335.28125 187.5 C 335.28125 105.996094 269 39.714844 187.5 39.714844 C 105.996094 39.714844 39.714844 105.996094 39.714844 187.5 C 39.714844 269 105.996094 335.28125 187.5 335.28125 C 269 335.28125 335.28125 269 335.28125 187.5 Z M 335.28125 187.5 " fill-opacity="1" fill-rule="nonzero"/></g><path stroke-linecap="butt" transform="matrix(0.749658, 0, 0, 0.75, 72.027422, 141.749991)" fill="none" stroke-linejoin="miter" d="M -0.000104608 1.000012 L 308.156178 1.000012 " stroke="#ffffff" stroke-width="2" stroke-opacity="1" stroke-miterlimit="4"/><path stroke-linecap="butt" transform="matrix(0.749658, 0, 0, 0.75, 72.027422, 235.905102)" fill="none" stroke-linejoin="miter" d="M -0.000104608 1.001531 L 308.156178 1.001531 " stroke="#ffffff" stroke-width="2" stroke-opacity="1" stroke-miterlimit="4"/><g fill="#ffffff" fill-opacity="1"><g transform="translate(161.797962, 103.949993)"><g><path d="M 0.359375 -0.375 C 0.535156 -0.394531 0.710938 -0.425781 0.890625 -0.46875 C 1.078125 -0.519531 1.207031 -0.578125 1.28125 -0.640625 L 1.28125 -6.046875 C 1.03125 -6.171875 0.703125 -6.257812 0.296875 -6.3125 L 0.34375 -6.671875 L 4.8125 -6.671875 L 4.890625 -5.15625 C 4.804688 -5.113281 4.710938 -5.09375 4.609375 -5.09375 C 4.578125 -5.09375 4.523438 -5.101562 4.453125 -5.125 C 4.367188 -5.5625 4.234375 -5.898438 4.046875 -6.140625 L 2.15625 -6.140625 L 2.15625 -3.640625 L 3.296875 -3.6875 C 3.429688 -3.695312 3.539062 -3.757812 3.625 -3.875 C 3.71875 -4 3.789062 -4.160156 3.84375 -4.359375 L 4.171875 -4.359375 L 4.171875 -2.375 L 3.84375 -2.375 C 3.769531 -2.664062 3.695312 -2.859375 3.625 -2.953125 C 3.550781 -3.054688 3.429688 -3.113281 3.265625 -3.125 L 2.15625 -3.1875 L 2.15625 -0.578125 L 4.296875 -0.578125 C 4.492188 -0.859375 4.632812 -1.234375 4.71875 -1.703125 C 4.800781 -1.722656 4.863281 -1.734375 4.90625 -1.734375 C 4.9375 -1.734375 5.007812 -1.722656 5.125 -1.703125 L 5.03125 0 L 0.296875 0 Z M 0.359375 -0.375 "/></g></g></g><g fill="#ffffff" fill-opacity="1"><g transform="translate(168.395837, 103.949993)"><g><path d="M 2.03125 0.0625 C 1.6875 0.0625 1.332031 0.00390625 0.96875 -0.109375 C 0.601562 -0.222656 0.34375 -0.335938 0.1875 -0.453125 L 0.1875 -2.09375 L 0.671875 -2.140625 C 0.710938 -1.816406 0.753906 -1.546875 0.796875 -1.328125 C 0.847656 -1.109375 0.925781 -0.882812 1.03125 -0.65625 C 1.363281 -0.507812 1.742188 -0.4375 2.171875 -0.4375 C 2.546875 -0.4375 2.847656 -0.535156 3.078125 -0.734375 C 3.304688 -0.941406 3.421875 -1.226562 3.421875 -1.59375 C 3.421875 -1.851562 3.351562 -2.070312 3.21875 -2.25 C 3.09375 -2.4375 2.929688 -2.582031 2.734375 -2.6875 C 2.546875 -2.800781 2.296875 -2.925781 1.984375 -3.0625 C 1.617188 -3.21875 1.320312 -3.363281 1.09375 -3.5 C 0.863281 -3.644531 0.664062 -3.835938 0.5 -4.078125 C 0.34375 -4.328125 0.265625 -4.628906 0.265625 -4.984375 C 0.265625 -5.523438 0.445312 -5.957031 0.8125 -6.28125 C 1.175781 -6.601562 1.679688 -6.765625 2.328125 -6.765625 C 2.660156 -6.765625 2.972656 -6.707031 3.265625 -6.59375 C 3.554688 -6.476562 3.785156 -6.320312 3.953125 -6.125 C 4.117188 -5.9375 4.203125 -5.722656 4.203125 -5.484375 C 4.203125 -5.054688 4.035156 -4.84375 3.703125 -4.84375 C 3.554688 -4.84375 3.441406 -4.863281 3.359375 -4.90625 C 3.273438 -4.957031 3.195312 -5.03125 3.125 -5.125 C 3.269531 -5.269531 3.34375 -5.441406 3.34375 -5.640625 C 3.34375 -5.816406 3.25 -5.960938 3.0625 -6.078125 C 2.882812 -6.191406 2.632812 -6.25 2.3125 -6.25 C 1.945312 -6.25 1.65625 -6.160156 1.4375 -5.984375 C 1.226562 -5.816406 1.125 -5.566406 1.125 -5.234375 C 1.125 -4.992188 1.1875 -4.796875 1.3125 -4.640625 C 1.4375 -4.484375 1.585938 -4.351562 1.765625 -4.25 C 1.953125 -4.144531 2.203125 -4.023438 2.515625 -3.890625 C 2.898438 -3.722656 3.210938 -3.566406 3.453125 -3.421875 C 3.691406 -3.273438 3.894531 -3.066406 4.0625 -2.796875 C 4.238281 -2.535156 4.328125 -2.207031 4.328125 -1.8125 C 4.328125 -1.207031 4.113281 -0.742188 3.6875 -0.421875 C 3.269531 -0.0976562 2.71875 0.0625 2.03125 0.0625 Z M 2.03125 0.0625 "/></g></g></g><g fill="#ffffff" fill-opacity="1"><g transform="translate(174.124052, 103.949993)"><g><path d="M 1.4375 -0.375 C 1.832031 -0.414062 2.132812 -0.503906 2.34375 -0.640625 L 2.34375 -6.21875 C 1.832031 -6.207031 1.398438 -6.1875 1.046875 -6.15625 C 0.921875 -5.988281 0.828125 -5.796875 0.765625 -5.578125 C 0.703125 -5.359375 0.664062 -5.160156 0.65625 -4.984375 C 0.613281 -4.984375 0.546875 -4.984375 0.453125 -4.984375 C 0.347656 -4.984375 0.269531 -4.984375 0.21875 -4.984375 L 0.21875 -6.703125 C 1.132812 -6.679688 1.988281 -6.671875 2.78125 -6.671875 C 3.300781 -6.671875 3.804688 -6.675781 4.296875 -6.6875 C 4.796875 -6.695312 5.144531 -6.703125 5.34375 -6.703125 L 5.34375 -4.984375 C 5.300781 -4.984375 5.234375 -4.984375 5.140625 -4.984375 C 5.035156 -4.984375 4.957031 -4.984375 4.90625 -4.984375 C 4.863281 -5.460938 4.742188 -5.847656 4.546875 -6.140625 C 4.117188 -6.179688 3.679688 -6.207031 3.234375 -6.21875 L 3.234375 -0.640625 C 3.460938 -0.515625 3.785156 -0.425781 4.203125 -0.375 L 4.15625 0 L 1.375 0 Z M 1.4375 -0.375 "/></g></g></g><g fill="#ffffff" fill-opacity="1"><g transform="translate(180.89186, 103.949993)"><g><path d="M 0.359375 -0.375 C 0.554688 -0.394531 0.722656 -0.421875 0.859375 -0.453125 C 1.003906 -0.492188 1.140625 -0.550781 1.265625 -0.625 L 1.265625 -6.046875 C 1.035156 -6.171875 0.710938 -6.257812 0.296875 -6.3125 L 0.34375 -6.671875 L 2.5 -6.671875 C 3.664062 -6.671875 4.535156 -6.398438 5.109375 -5.859375 C 5.691406 -5.328125 5.984375 -4.484375 5.984375 -3.328125 C 5.984375 -2.160156 5.691406 -1.3125 5.109375 -0.78125 C 4.523438 -0.257812 3.632812 0 2.4375 0 L 0.3125 0 Z M 2.609375 -0.484375 C 3.410156 -0.484375 4.003906 -0.695312 4.390625 -1.125 C 4.785156 -1.5625 4.984375 -2.300781 4.984375 -3.34375 C 4.984375 -4.375 4.789062 -5.101562 4.40625 -5.53125 C 4.019531 -5.957031 3.429688 -6.171875 2.640625 -6.171875 L 2.15625 -6.171875 L 2.15625 -0.53125 C 2.269531 -0.5 2.421875 -0.484375 2.609375 -0.484375 Z M 2.609375 -0.484375 "/></g></g></g><g fill="#ffffff" fill-opacity="1"><g transform="translate(188.339402, 103.949993)"><g/></g></g><g fill="#ffffff" fill-opacity="1"><g transform="translate(191.738537, 103.949993)"><g><path d="M 0.234375 -0.34375 C 0.828125 -0.40625 1.28125 -0.503906 1.59375 -0.640625 L 1.59375 -5.71875 L 0.25 -5.71875 L 0.25 -6.15625 C 0.925781 -6.207031 1.554688 -6.390625 2.140625 -6.703125 L 2.46875 -6.5625 L 2.46875 -0.640625 C 2.59375 -0.578125 2.78125 -0.515625 3.03125 -0.453125 C 3.28125 -0.398438 3.507812 -0.363281 3.71875 -0.34375 L 3.6875 0 L 0.203125 0 Z M 0.234375 -0.34375 "/></g></g></g><g fill="#ffffff" fill-opacity="1"><g transform="translate(196.557117, 103.949993)"><g><path d="M 0.90625 -0.296875 C 1.644531 -0.617188 2.222656 -1.019531 2.640625 -1.5 C 3.066406 -1.988281 3.332031 -2.613281 3.4375 -3.375 C 3.0625 -3.113281 2.632812 -2.984375 2.15625 -2.984375 C 1.59375 -2.984375 1.132812 -3.144531 0.78125 -3.46875 C 0.425781 -3.789062 0.25 -4.226562 0.25 -4.78125 C 0.25 -5.382812 0.4375 -5.851562 0.8125 -6.1875 C 1.195312 -6.53125 1.703125 -6.703125 2.328125 -6.703125 C 3.046875 -6.703125 3.578125 -6.492188 3.921875 -6.078125 C 4.273438 -5.660156 4.453125 -5.03125 4.453125 -4.1875 C 4.453125 -3.09375 4.144531 -2.179688 3.53125 -1.453125 C 2.925781 -0.734375 2.109375 -0.21875 1.078125 0.09375 Z M 2.25 -3.484375 C 2.71875 -3.484375 3.128906 -3.671875 3.484375 -4.046875 L 3.484375 -4.1875 C 3.484375 -4.78125 3.398438 -5.265625 3.234375 -5.640625 C 3.066406 -6.015625 2.757812 -6.203125 2.3125 -6.203125 C 1.945312 -6.203125 1.664062 -6.078125 1.46875 -5.828125 C 1.269531 -5.585938 1.171875 -5.242188 1.171875 -4.796875 C 1.171875 -4.398438 1.257812 -4.082031 1.4375 -3.84375 C 1.625 -3.601562 1.894531 -3.484375 2.25 -3.484375 Z M 2.25 -3.484375 "/></g></g></g><g fill="#ffffff" fill-opacity="1"><g transform="translate(202.535236, 103.949993)"><g><path d="M 0.90625 -0.296875 C 1.644531 -0.617188 2.222656 -1.019531 2.640625 -1.5 C 3.066406 -1.988281 3.332031 -2.613281 3.4375 -3.375 C 3.0625 -3.113281 2.632812 -2.984375 2.15625 -2.984375 C 1.59375 -2.984375 1.132812 -3.144531 0.78125 -3.46875 C 0.425781 -3.789062 0.25 -4.226562 0.25 -4.78125 C 0.25 -5.382812 0.4375 -5.851562 0.8125 -6.1875 C 1.195312 -6.53125 1.703125 -6.703125 2.328125 -6.703125 C 3.046875 -6.703125 3.578125 -6.492188 3.921875 -6.078125 C 4.273438 -5.660156 4.453125 -5.03125 4.453125 -4.1875 C 4.453125 -3.09375 4.144531 -2.179688 3.53125 -1.453125 C 2.925781 -0.734375 2.109375 -0.21875 1.078125 0.09375 Z M 2.25 -3.484375 C 2.71875 -3.484375 3.128906 -3.671875 3.484375 -4.046875 L 3.484375 -4.1875 C 3.484375 -4.78125 3.398438 -5.265625 3.234375 -5.640625 C 3.066406 -6.015625 2.757812 -6.203125 2.3125 -6.203125 C 1.945312 -6.203125 1.664062 -6.078125 1.46875 -5.828125 C 1.269531 -5.585938 1.171875 -5.242188 1.171875 -4.796875 C 1.171875 -4.398438 1.257812 -4.082031 1.4375 -3.84375 C 1.625 -3.601562 1.894531 -3.484375 2.25 -3.484375 Z M 2.25 -3.484375 "/></g></g></g><g fill="#ffffff" fill-opacity="1"><g transform="translate(208.513354, 103.949993)"><g><path d="M 2.453125 0.0625 C 1.753906 0.0625 1.210938 -0.0859375 0.828125 -0.390625 C 0.453125 -0.703125 0.265625 -1.144531 0.265625 -1.71875 C 0.265625 -2.0625 0.367188 -2.390625 0.578125 -2.703125 C 0.785156 -3.023438 1.082031 -3.304688 1.46875 -3.546875 C 1.144531 -3.722656 0.90625 -3.929688 0.75 -4.171875 C 0.59375 -4.421875 0.515625 -4.710938 0.515625 -5.046875 C 0.515625 -5.546875 0.6875 -5.945312 1.03125 -6.25 C 1.382812 -6.550781 1.851562 -6.703125 2.4375 -6.703125 C 3.007812 -6.703125 3.457031 -6.5625 3.78125 -6.28125 C 4.101562 -6 4.265625 -5.613281 4.265625 -5.125 C 4.265625 -4.851562 4.175781 -4.585938 4 -4.328125 C 3.832031 -4.078125 3.59375 -3.851562 3.28125 -3.65625 C 3.726562 -3.425781 4.050781 -3.164062 4.25 -2.875 C 4.457031 -2.582031 4.5625 -2.226562 4.5625 -1.8125 C 4.5625 -1.238281 4.367188 -0.78125 3.984375 -0.4375 C 3.609375 -0.101562 3.097656 0.0625 2.453125 0.0625 Z M 2.765625 -3.890625 C 2.992188 -4.046875 3.15625 -4.21875 3.25 -4.40625 C 3.351562 -4.601562 3.40625 -4.847656 3.40625 -5.140625 C 3.40625 -5.460938 3.3125 -5.71875 3.125 -5.90625 C 2.945312 -6.101562 2.710938 -6.203125 2.421875 -6.203125 C 2.085938 -6.203125 1.828125 -6.109375 1.640625 -5.921875 C 1.460938 -5.742188 1.375 -5.484375 1.375 -5.140625 C 1.375 -4.960938 1.414062 -4.8125 1.5 -4.6875 C 1.582031 -4.5625 1.722656 -4.4375 1.921875 -4.3125 C 2.117188 -4.1875 2.398438 -4.046875 2.765625 -3.890625 Z M 2.453125 -0.421875 C 2.828125 -0.421875 3.125 -0.539062 3.34375 -0.78125 C 3.5625 -1.019531 3.671875 -1.347656 3.671875 -1.765625 C 3.671875 -1.992188 3.617188 -2.1875 3.515625 -2.34375 C 3.410156 -2.507812 3.238281 -2.664062 3 -2.8125 C 2.757812 -2.957031 2.414062 -3.125 1.96875 -3.3125 C 1.695312 -3.132812 1.5 -2.921875 1.375 -2.671875 C 1.25 -2.429688 1.1875 -2.132812 1.1875 -1.78125 C 1.1875 -1.351562 1.296875 -1.019531 1.515625 -0.78125 C 1.742188 -0.539062 2.054688 -0.421875 2.453125 -0.421875 Z M 2.453125 -0.421875 "/></g></g></g><g clip-path="url(#a1f595ecbc)"><path fill="#ffffff" d="M 145.144531 100.804688 C 145.144531 101.425781 144.640625 101.929688 144.019531 101.929688 C 143.398438 101.929688 142.894531 101.425781 142.894531 100.804688 C 142.894531 100.183594 143.398438 99.679688 144.019531 99.679688 C 144.640625 99.679688 145.144531 100.183594 145.144531 100.804688 M 145.082031 100.804688 C 145.082031 100.21875 144.605469 99.746094 144.019531 99.746094 C 143.4375 99.746094 142.960938 100.21875 142.960938 100.804688 C 142.960938 101.386719 143.4375 101.863281 144.019531 101.863281 C 144.605469 101.863281 145.082031 101.386719 145.082031 100.804688 Z M 145.082031 100.804688 " fill-opacity="1" fill-rule="nonzero"/></g><g clip-path="url(#d63718e29d)"><path fill="#ffffff" d="M 144.972656 100.816406 C 144.972656 101.347656 144.542969 101.773438 144.015625 101.773438 C 143.488281 101.773438 143.058594 101.347656 143.058594 100.816406 C 143.058594 100.289062 143.488281 99.859375 144.015625 99.859375 C 144.542969 99.859375 144.972656 100.289062 144.972656 100.816406 M 144.90625 100.816406 C 144.90625 100.324219 144.507812 99.925781 144.015625 99.925781 C 143.523438 99.925781 143.125 100.324219 143.125 100.816406 C 143.125 101.308594 143.523438 101.707031 144.015625 101.707031 C 144.507812 101.707031 144.90625 101.308594 144.90625 100.816406 Z M 144.90625 100.816406 " fill-opacity="1" fill-rule="nonzero"/><path fill="#ffffff" d="M 144.015625 99.921875 C 143.523438 99.921875 143.121094 100.324219 143.121094 100.816406 C 143.121094 101.308594 143.523438 101.710938 144.015625 101.710938 C 144.507812 101.710938 144.910156 101.308594 144.910156 100.816406 C 144.910156 100.324219 144.507812 99.921875 144.015625 99.921875 Z M 144.015625 99.921875 " fill-opacity="1" fill-rule="nonzero"/><path fill="#ffffff" d="M 144.832031 101.113281 C 144.800781 101.199219 144.753906 101.28125 144.699219 101.351562 L 144.65625 101.320312 C 144.710938 101.253906 144.753906 101.175781 144.78125 101.097656 Z M 144.683594 101.375 C 144.625 101.441406 144.554688 101.503906 144.476562 101.550781 L 144.449219 101.507812 C 144.523438 101.460938 144.585938 101.40625 144.640625 101.339844 Z M 144.453125 101.566406 C 144.375 101.609375 144.289062 101.644531 144.199219 101.664062 L 144.1875 101.609375 C 144.273438 101.59375 144.355469 101.5625 144.425781 101.519531 Z M 144.171875 101.667969 C 144.125 101.675781 144.074219 101.679688 144.023438 101.679688 C 143.980469 101.679688 143.941406 101.675781 143.902344 101.671875 L 143.910156 101.621094 C 143.945312 101.625 143.984375 101.628906 144.023438 101.628906 C 144.070312 101.628906 144.117188 101.625 144.164062 101.617188 Z M 143.875 101.667969 C 143.785156 101.652344 143.695312 101.621094 143.617188 101.578125 L 143.644531 101.53125 C 143.71875 101.570312 143.796875 101.601562 143.882812 101.617188 Z M 143.59375 101.566406 C 143.515625 101.519531 143.445312 101.460938 143.382812 101.394531 L 143.421875 101.359375 C 143.480469 101.421875 143.546875 101.476562 143.621094 101.519531 Z M 143.363281 101.375 C 143.308594 101.304688 143.257812 101.226562 143.226562 101.140625 L 143.273438 101.121094 C 143.304688 101.203125 143.351562 101.273438 143.40625 101.339844 Z M 143.214844 101.117188 C 143.183594 101.03125 143.167969 100.941406 143.164062 100.847656 L 143.214844 100.847656 C 143.21875 100.933594 143.234375 101.019531 143.265625 101.097656 Z M 143.164062 100.820312 C 143.164062 100.726562 143.179688 100.636719 143.207031 100.554688 L 143.253906 100.570312 C 143.230469 100.648438 143.214844 100.734375 143.214844 100.820312 Z M 143.214844 100.527344 C 143.246094 100.441406 143.289062 100.359375 143.347656 100.289062 L 143.386719 100.324219 C 143.335938 100.390625 143.292969 100.464844 143.265625 100.546875 Z M 143.363281 100.269531 C 143.421875 100.199219 143.492188 100.140625 143.566406 100.089844 L 143.597656 100.136719 C 143.523438 100.179688 143.457031 100.238281 143.402344 100.304688 Z M 143.589844 100.078125 C 143.667969 100.03125 143.753906 100 143.84375 99.980469 L 143.855469 100.03125 C 143.769531 100.046875 143.691406 100.078125 143.617188 100.121094 Z M 143.871094 99.972656 C 143.921875 99.964844 143.972656 99.960938 144.023438 99.960938 C 144.0625 99.960938 144.105469 99.964844 144.144531 99.96875 L 144.136719 100.019531 C 144.097656 100.015625 144.0625 100.011719 144.023438 100.011719 C 143.976562 100.011719 143.925781 100.019531 143.882812 100.027344 Z M 144.171875 99.972656 C 144.261719 99.988281 144.347656 100.019531 144.425781 100.0625 L 144.402344 100.109375 C 144.328125 100.066406 144.246094 100.039062 144.160156 100.023438 Z M 144.453125 100.074219 C 144.53125 100.121094 144.601562 100.175781 144.664062 100.246094 L 144.625 100.28125 C 144.566406 100.21875 144.5 100.164062 144.425781 100.121094 Z M 144.679688 100.265625 C 144.738281 100.335938 144.785156 100.414062 144.820312 100.5 L 144.773438 100.519531 C 144.738281 100.4375 144.695312 100.363281 144.640625 100.300781 Z M 144.832031 100.523438 C 144.863281 100.605469 144.878906 100.695312 144.882812 100.789062 L 144.828125 100.792969 C 144.828125 100.703125 144.808594 100.621094 144.78125 100.542969 Z M 144.882812 100.816406 C 144.882812 100.820312 144.882812 100.820312 144.882812 100.820312 C 144.882812 100.914062 144.867188 101.003906 144.839844 101.089844 L 144.789062 101.074219 C 144.816406 100.992188 144.832031 100.910156 144.832031 100.820312 C 144.832031 100.820312 144.832031 100.820312 144.832031 100.816406 Z M 144.882812 100.816406 " fill-opacity="1" fill-rule="nonzero"/></g><g clip-path="url(#3b72d734a4)"><path fill="#ffffff" d="M 231.820312 100.804688 C 231.820312 101.425781 231.316406 101.929688 230.695312 101.929688 C 230.074219 101.929688 229.570312 101.425781 229.570312 100.804688 C 229.570312 100.183594 230.074219 99.679688 230.695312 99.679688 C 231.316406 99.679688 231.820312 100.183594 231.820312 100.804688 M 231.753906 100.804688 C 231.753906 100.21875 231.277344 99.746094 230.695312 99.746094 C 230.109375 99.746094 229.636719 100.21875 229.636719 100.804688 C 229.636719 101.386719 230.109375 101.863281 230.695312 101.863281 C 231.277344 101.863281 231.753906 101.386719 231.753906 100.804688 Z M 231.753906 100.804688 " fill-opacity="1" fill-rule="nonzero"/><path fill="#ffffff" d="M 231.648438 100.816406 C 231.648438 101.347656 231.21875 101.773438 230.6875 101.773438 C 230.160156 101.773438 229.730469 101.347656 229.730469 100.816406 C 229.730469 100.289062 230.160156 99.859375 230.6875 99.859375 C 231.21875 99.859375 231.648438 100.289062 231.648438 100.816406 M 231.582031 100.816406 C 231.582031 100.324219 231.179688 99.925781 230.6875 99.925781 C 230.195312 99.925781 229.796875 100.324219 229.796875 100.816406 C 229.796875 101.308594 230.195312 101.707031 230.6875 101.707031 C 231.179688 101.707031 231.582031 101.308594 231.582031 100.816406 Z M 231.582031 100.816406 " fill-opacity="1" fill-rule="nonzero"/><path fill="#ffffff" d="M 230.6875 99.921875 C 230.195312 99.921875 229.792969 100.324219 229.792969 100.816406 C 229.792969 101.308594 230.195312 101.710938 230.6875 101.710938 C 231.183594 101.710938 231.582031 101.308594 231.582031 100.816406 C 231.582031 100.324219 231.183594 99.921875 230.6875 99.921875 Z M 230.6875 99.921875 " fill-opacity="1" fill-rule="nonzero"/><path fill="#ffffff" d="M 231.503906 101.113281 C 231.472656 101.199219 231.429688 101.28125 231.371094 101.351562 L 231.332031 101.320312 C 231.382812 101.253906 231.425781 101.175781 231.453125 101.097656 Z M 231.355469 101.375 C 231.296875 101.441406 231.226562 101.503906 231.148438 101.550781 L 231.121094 101.507812 C 231.195312 101.460938 231.261719 101.40625 231.316406 101.339844 Z M 231.125 101.566406 C 231.050781 101.609375 230.964844 101.644531 230.875 101.664062 L 230.863281 101.609375 C 230.949219 101.59375 231.027344 101.5625 231.101562 101.519531 Z M 230.847656 101.667969 C 230.796875 101.675781 230.746094 101.679688 230.695312 101.679688 C 230.65625 101.679688 230.613281 101.675781 230.574219 101.671875 L 230.582031 101.621094 C 230.621094 101.625 230.65625 101.628906 230.695312 101.628906 C 230.746094 101.628906 230.792969 101.625 230.835938 101.617188 Z M 230.546875 101.667969 C 230.457031 101.652344 230.371094 101.621094 230.289062 101.578125 L 230.316406 101.53125 C 230.390625 101.570312 230.472656 101.601562 230.558594 101.617188 Z M 230.265625 101.566406 C 230.1875 101.519531 230.117188 101.460938 230.054688 101.394531 L 230.09375 101.359375 C 230.152344 101.421875 230.21875 101.476562 230.292969 101.519531 Z M 230.039062 101.375 C 229.980469 101.304688 229.933594 101.226562 229.898438 101.140625 L 229.945312 101.121094 C 229.980469 101.203125 230.023438 101.273438 230.078125 101.339844 Z M 229.886719 101.117188 C 229.859375 101.03125 229.839844 100.941406 229.835938 100.847656 L 229.890625 100.847656 C 229.890625 100.933594 229.910156 101.019531 229.9375 101.097656 Z M 229.835938 100.820312 C 229.835938 100.726562 229.851562 100.636719 229.878906 100.554688 L 229.929688 100.570312 C 229.902344 100.648438 229.890625 100.734375 229.890625 100.820312 Z M 229.886719 100.527344 C 229.917969 100.441406 229.964844 100.359375 230.019531 100.289062 L 230.0625 100.324219 C 230.007812 100.390625 229.964844 100.464844 229.9375 100.546875 Z M 230.035156 100.269531 C 230.09375 100.199219 230.164062 100.140625 230.242188 100.089844 L 230.269531 100.136719 C 230.195312 100.179688 230.132812 100.238281 230.078125 100.304688 Z M 230.265625 100.078125 C 230.34375 100.03125 230.425781 100 230.519531 99.980469 L 230.527344 100.03125 C 230.445312 100.046875 230.363281 100.078125 230.292969 100.121094 Z M 230.542969 99.972656 C 230.59375 99.964844 230.644531 99.960938 230.695312 99.960938 C 230.738281 99.960938 230.777344 99.964844 230.816406 99.96875 L 230.808594 100.019531 C 230.773438 100.015625 230.734375 100.011719 230.695312 100.011719 C 230.648438 100.011719 230.601562 100.019531 230.554688 100.027344 Z M 230.84375 99.972656 C 230.933594 99.988281 231.019531 100.019531 231.101562 100.0625 L 231.074219 100.109375 C 231 100.066406 230.921875 100.039062 230.835938 100.023438 Z M 231.125 100.074219 C 231.203125 100.121094 231.273438 100.175781 231.335938 100.246094 L 231.296875 100.28125 C 231.238281 100.21875 231.171875 100.164062 231.097656 100.121094 Z M 231.351562 100.265625 C 231.410156 100.335938 231.460938 100.414062 231.492188 100.5 L 231.445312 100.519531 C 231.414062 100.4375 231.367188 100.363281 231.3125 100.300781 Z M 231.503906 100.523438 C 231.535156 100.605469 231.550781 100.695312 231.554688 100.789062 L 231.503906 100.792969 C 231.5 100.703125 231.484375 100.621094 231.453125 100.542969 Z M 231.554688 100.816406 C 231.554688 100.820312 231.554688 100.820312 231.554688 100.820312 C 231.554688 100.914062 231.542969 101.003906 231.511719 101.089844 L 231.464844 101.074219 C 231.488281 100.992188 231.503906 100.910156 231.503906 100.820312 C 231.503906 100.820312 231.503906 100.820312 231.503906 100.816406 Z M 231.554688 100.816406 " fill-opacity="1" fill-rule="nonzero"/></g><g fill="#ffffff" fill-opacity="1"><g transform="translate(65.190997, 197.624987)"><g/></g></g><g fill="#ffffff" fill-opacity="1"><g transform="translate(76.546465, 197.624987)"><g><path d="M 30.042969 -8.621094 C 29.671875 -8.769531 29.265625 -8.621094 29.117188 -8.25 C 24.898438 0.703125 20.828125 7.289062 16.980469 11.320312 C 13.726562 14.726562 10.804688 16.132812 8.472656 15.429688 C 6.363281 14.761719 4.734375 12.28125 3.921875 8.433594 C 2.996094 4.292969 3.035156 -1.035156 3.996094 -6.957031 C 5.363281 -15.390625 9.324219 -27.339844 13.949219 -32.890625 C 15.316406 -34.519531 16.5 -35.296875 17.203125 -34.925781 C 18.941406 -34.074219 19.644531 -27.007812 15.835938 -9.878906 C 15.722656 -9.507812 15.984375 -9.136719 16.351562 -9.027344 C 16.761719 -8.953125 17.128906 -9.210938 17.203125 -9.582031 C 19.683594 -20.644531 21.792969 -34.257812 17.832031 -36.21875 C 16.871094 -36.703125 15.242188 -36.664062 12.875 -33.816406 C 9.914062 -30.265625 7.660156 -24.972656 6.289062 -21.125 C 4.625 -16.574219 3.292969 -11.46875 2.589844 -7.175781 C 0.519531 5.511719 2.738281 15.132812 8.066406 16.796875 C 8.582031 16.945312 9.136719 17.019531 9.691406 17.019531 C 15.539062 17.019531 22.976562 8.214844 30.375 -7.660156 C 30.558594 -8.027344 30.410156 -8.433594 30.042969 -8.621094 Z M 30.042969 -8.621094 "/></g></g></g><g fill="#ffffff" fill-opacity="1"><g transform="translate(105.107426, 197.624987)"><g><path d="M 17.5 -8.433594 C 17.167969 -8.65625 16.722656 -8.546875 16.539062 -8.214844 C 11.285156 0.257812 9.433594 0.0742188 9.25 0.0351562 C 8.878906 -0.0742188 8.472656 -0.8125 8.363281 -2.625 C 8.324219 -3.441406 8.140625 -5.882812 6.511719 -6.105469 C 4.625 -6.363281 2.367188 -3.070312 0.332031 1.183594 C 1.589844 -4.441406 3.402344 -12.171875 4.734375 -17.648438 C 9.691406 -26.5625 12.210938 -33.261719 11.171875 -34.703125 C 10.953125 -35.035156 10.582031 -35.148438 10.210938 -35.074219 C 8.621094 -34.777344 6.140625 -29.375 4.476562 -22.53125 C 4.402344 -22.273438 -2.21875 4.773438 -2.441406 8.101562 C -2.441406 8.472656 -2.21875 8.769531 -1.851562 8.84375 C -1.8125 8.84375 -1.777344 8.84375 -1.738281 8.84375 C -1.441406 8.84375 -1.148438 8.65625 -1.035156 8.398438 C 2.183594 -0.851562 5.328125 -4.699219 6.253906 -4.699219 C 6.289062 -4.699219 6.289062 -4.699219 6.289062 -4.699219 C 6.4375 -4.699219 6.84375 -4.253906 6.957031 -2.554688 C 6.992188 -1.664062 7.175781 0.960938 8.878906 1.40625 C 9.621094 1.589844 11.800781 2.144531 17.722656 -7.472656 C 17.945312 -7.804688 17.832031 -8.25 17.5 -8.433594 Z M 9.953125 -33.039062 C 9.65625 -31.558594 8.621094 -28.378906 6.140625 -23.382812 C 7.546875 -28.710938 9.0625 -31.78125 9.953125 -33.039062 Z M 9.953125 -33.039062 "/></g></g></g><g fill="#ffffff" fill-opacity="1"><g transform="translate(121.05273, 197.624987)"><g><path d="M 15.464844 -8.214844 C 15.132812 -8.363281 14.6875 -8.214844 14.539062 -7.878906 C 11.726562 -2.144531 9.621094 -0.332031 8.621094 -0.519531 C 8.214844 -0.59375 6.882812 -1.367188 6.546875 -7.84375 C 6.546875 -8.140625 6.328125 -8.398438 6.066406 -8.472656 C 5.773438 -8.546875 5.4375 -8.472656 5.289062 -8.214844 C 5.070312 -7.953125 4.847656 -7.660156 4.625 -7.324219 C 3.699219 -6.066406 2.480469 -4.367188 1 -2.773438 C 0.777344 -2.515625 0.59375 -2.367188 0.480469 -2.292969 C 0.222656 -3.589844 1.589844 -8.546875 3.773438 -10.101562 C 4.402344 -10.542969 5.253906 -10.878906 6.402344 -9.546875 C 6.660156 -9.25 7.105469 -9.210938 7.398438 -9.472656 C 7.695312 -9.691406 7.734375 -10.175781 7.511719 -10.46875 C 6.105469 -12.097656 4.773438 -12.0625 3.882812 -11.765625 C 1.035156 -10.765625 -0.886719 -5.289062 -0.960938 -2.773438 C -1 -1.738281 -0.703125 -1.074219 -0.109375 -0.851562 C 0.8125 -0.480469 1.738281 -1.480469 2.035156 -1.8125 C 3.292969 -3.183594 4.441406 -4.660156 5.253906 -5.808594 C 5.660156 -1.589844 6.660156 0.519531 8.324219 0.886719 C 8.472656 0.886719 8.621094 0.925781 8.769531 0.925781 C 11.285156 0.925781 13.984375 -3.476562 15.796875 -7.25 C 15.984375 -7.621094 15.835938 -8.027344 15.464844 -8.214844 Z M 15.464844 -8.214844 "/></g></g></g><g fill="#ffffff" fill-opacity="1"><g transform="translate(134.815268, 197.624987)"><g><path d="M 10.804688 -8.398438 C 10.46875 -8.621094 10.0625 -8.507812 9.839844 -8.175781 C 7.363281 -4.179688 3.21875 -0.40625 1.960938 -0.925781 C 1.8125 -1 0.628906 -1.703125 2.257812 -7.953125 C 2.332031 -8.363281 2.109375 -8.730469 1.738281 -8.84375 C 1.332031 -8.917969 0.960938 -8.695312 0.851562 -8.324219 C -0.480469 -3.109375 -0.296875 -0.332031 1.367188 0.371094 C 1.628906 0.480469 1.886719 0.519531 2.144531 0.519531 C 4.921875 0.519531 9.175781 -4.441406 11.0625 -7.4375 C 11.246094 -7.769531 11.136719 -8.214844 10.804688 -8.398438 Z M 2.070312 -11.394531 C 3.957031 -11.285156 3.921875 -13.652344 2.40625 -13.132812 C 1.628906 -12.914062 0.628906 -11.46875 2.070312 -11.394531 Z M 2.070312 -11.394531 "/></g></g></g><g fill="#ffffff" fill-opacity="1"><g transform="translate(144.175276, 197.624987)"><g><path d="M 31.226562 -21.828125 C 30.746094 -22.496094 28.597656 -22.902344 5.625 -22.382812 C 6.363281 -25.378906 7.03125 -28.082031 7.621094 -30.265625 C 7.734375 -30.671875 7.511719 -31.039062 7.140625 -31.152344 C 6.769531 -31.261719 6.363281 -31.039062 6.253906 -30.671875 C 5.625 -28.339844 4.921875 -25.527344 4.144531 -22.347656 C 2.109375 -22.308594 -0.109375 -22.273438 -2.515625 -22.199219 C -5.808594 -22.125 -8.398438 -22.050781 -9.398438 -22.050781 C -9.804688 -22.050781 -10.136719 -21.71875 -10.136719 -21.347656 C -10.136719 -20.941406 -9.804688 -20.609375 -9.398438 -20.609375 C -8.363281 -20.644531 -5.773438 -20.679688 -2.480469 -20.792969 C -0.738281 -20.828125 1.40625 -20.867188 3.8125 -20.941406 C 2.21875 -14.207031 0.40625 -6.140625 -1.222656 1.738281 C -2.40625 7.511719 -3.367188 12.503906 -3.996094 16.167969 C -4.328125 18.089844 -4.550781 19.609375 -4.660156 20.644531 C -4.808594 22.050781 -4.882812 22.863281 -4.179688 23.125 C -4.070312 23.125 -3.996094 23.160156 -3.882812 23.160156 C -3.253906 23.160156 -2.921875 22.273438 -2.625 21.457031 C -2.480469 21.089844 -2.664062 20.679688 -3.035156 20.535156 C -3.109375 20.535156 -3.144531 20.496094 -3.21875 20.496094 C -2.847656 17.609375 -1.738281 11.136719 0.40625 0.925781 C 1.996094 -6.808594 3.738281 -14.539062 5.289062 -20.976562 C 15.464844 -21.199219 28.671875 -21.382812 30.191406 -20.867188 C 30.449219 -20.644531 30.78125 -20.644531 31.078125 -20.828125 C 31.375 -21.050781 31.449219 -21.496094 31.226562 -21.828125 Z M 31.226562 -21.828125 "/></g></g></g><g fill="#ffffff" fill-opacity="1"><g transform="translate(149.095754, 197.624987)"><g><path d="M 15.464844 -8.214844 C 15.132812 -8.363281 14.6875 -8.214844 14.539062 -7.878906 C 11.726562 -2.144531 9.621094 -0.332031 8.621094 -0.519531 C 8.214844 -0.59375 6.882812 -1.367188 6.546875 -7.84375 C 6.546875 -8.140625 6.328125 -8.398438 6.066406 -8.472656 C 5.773438 -8.546875 5.4375 -8.472656 5.289062 -8.214844 C 5.070312 -7.953125 4.847656 -7.660156 4.625 -7.324219 C 3.699219 -6.066406 2.480469 -4.367188 1 -2.773438 C 0.777344 -2.515625 0.59375 -2.367188 0.480469 -2.292969 C 0.222656 -3.589844 1.589844 -8.546875 3.773438 -10.101562 C 4.402344 -10.542969 5.253906 -10.878906 6.402344 -9.546875 C 6.660156 -9.25 7.105469 -9.210938 7.398438 -9.472656 C 7.695312 -9.691406 7.734375 -10.175781 7.511719 -10.46875 C 6.105469 -12.097656 4.773438 -12.0625 3.882812 -11.765625 C 1.035156 -10.765625 -0.886719 -5.289062 -0.960938 -2.773438 C -1 -1.738281 -0.703125 -1.074219 -0.109375 -0.851562 C 0.8125 -0.480469 1.738281 -1.480469 2.035156 -1.8125 C 3.292969 -3.183594 4.441406 -4.660156 5.253906 -5.808594 C 5.660156 -1.589844 6.660156 0.519531 8.324219 0.886719 C 8.472656 0.886719 8.621094 0.925781 8.769531 0.925781 C 11.285156 0.925781 13.984375 -3.476562 15.796875 -7.25 C 15.984375 -7.621094 15.835938 -8.027344 15.464844 -8.214844 Z M 15.464844 -8.214844 "/></g></g></g><g fill="#ffffff" fill-opacity="1"><g transform="translate(162.858292, 197.624987)"><g><path d="M 14.871094 -8.25 C 14.539062 -8.433594 14.097656 -8.324219 13.910156 -7.953125 C 13.023438 -6.4375 10.691406 -2.332031 9.359375 -2.480469 C 9.101562 -2.515625 8.363281 -2.886719 7.621094 -5.476562 C 7.105469 -7.289062 6.402344 -8.992188 5.03125 -9.0625 C 4.03125 -9.136719 2.921875 -8.363281 1.222656 -5.179688 C 1.664062 -6.769531 2.144531 -8.363281 2.515625 -9.65625 C 2.664062 -10.136719 2.773438 -10.542969 2.886719 -10.953125 C 2.996094 -11.320312 2.773438 -11.726562 2.40625 -11.839844 C 2.035156 -11.949219 1.628906 -11.726562 1.515625 -11.320312 C 1.40625 -10.953125 1.292969 -10.507812 1.148438 -10.0625 C 0.183594 -6.769531 -1.257812 -1.777344 -1.628906 1.257812 C -1.664062 1.589844 -1.441406 1.925781 -1.109375 1.996094 C -1.035156 2.035156 -1 2.035156 -0.925781 2.035156 C -0.628906 2.035156 -0.371094 1.851562 -0.257812 1.589844 C 3.21875 -7.066406 4.625 -7.660156 4.957031 -7.660156 C 5.03125 -7.660156 5.550781 -7.511719 6.253906 -5.070312 C 6.992188 -2.515625 7.953125 -1.222656 9.210938 -1.074219 C 11.097656 -0.851562 12.800781 -3.183594 15.132812 -7.25 C 15.355469 -7.621094 15.207031 -8.027344 14.871094 -8.25 Z M 14.871094 -8.25 "/></g></g></g><g fill="#ffffff" fill-opacity="1"><g transform="translate(176.065884, 197.624987)"><g><path d="M 18.089844 -8.140625 C 17.871094 -8.472656 17.425781 -8.546875 17.09375 -8.324219 C 13.910156 -6.253906 10.65625 -3.957031 7.546875 -1.074219 C 7.992188 -3.8125 8.433594 -6.734375 8.84375 -9.804688 C 8.917969 -10.136719 8.695312 -10.46875 8.363281 -10.582031 C 8.066406 -10.691406 7.695312 -10.542969 7.546875 -10.25 C 6.808594 -8.992188 5.179688 -6.402344 3.738281 -4.660156 C 3.21875 -4.03125 2.699219 -3.699219 2.441406 -3.882812 C 1.8125 -4.253906 1.367188 -6.808594 2.8125 -10.324219 C 2.960938 -10.691406 2.773438 -11.097656 2.441406 -11.246094 C 2.070312 -11.394531 1.664062 -11.210938 1.515625 -10.839844 C 0 -7.140625 0.0742188 -3.625 1.738281 -2.664062 C 2.144531 -2.367188 3.328125 -1.960938 4.808594 -3.738281 C 5.585938 -4.660156 6.328125 -5.699219 6.992188 -6.695312 C 6.621094 -4.144531 6.253906 -1.703125 5.84375 0.628906 C 2.738281 3.8125 -0.183594 7.660156 -2.699219 12.542969 C -6.917969 20.644531 -7.695312 29.636719 -5.585938 32.226562 C -5.179688 32.742188 -4.660156 33 -4.105469 33 C -3.921875 33 -3.773438 32.964844 -3.589844 32.929688 C -1.183594 32.226562 0.960938 26.898438 2.367188 22.53125 C 4.105469 17.09375 5.699219 9.988281 7.175781 1.292969 C 10.617188 -2.144531 14.28125 -4.808594 17.871094 -7.140625 C 18.203125 -7.363281 18.3125 -7.804688 18.089844 -8.140625 Z M 1 22.085938 C -1.664062 30.523438 -3.589844 31.449219 -3.957031 31.558594 C -4.105469 31.597656 -4.253906 31.597656 -4.476562 31.335938 C -5.808594 29.710938 -5.917969 21.828125 -1.441406 13.171875 C 0.628906 9.210938 2.921875 5.957031 5.402344 3.183594 C 4.070312 10.839844 2.589844 17.167969 1 22.085938 Z M 1 22.085938 "/></g></g></g><g fill="#ffffff" fill-opacity="1"><g transform="translate(192.455138, 197.624987)"><g><path d="M 15.464844 -8.214844 C 15.132812 -8.363281 14.6875 -8.214844 14.539062 -7.878906 C 11.726562 -2.144531 9.621094 -0.332031 8.621094 -0.519531 C 8.214844 -0.59375 6.882812 -1.367188 6.546875 -7.84375 C 6.546875 -8.140625 6.328125 -8.398438 6.066406 -8.472656 C 5.773438 -8.546875 5.4375 -8.472656 5.289062 -8.214844 C 5.070312 -7.953125 4.847656 -7.660156 4.625 -7.324219 C 3.699219 -6.066406 2.480469 -4.367188 1 -2.773438 C 0.777344 -2.515625 0.59375 -2.367188 0.480469 -2.292969 C 0.222656 -3.589844 1.589844 -8.546875 3.773438 -10.101562 C 4.402344 -10.542969 5.253906 -10.878906 6.402344 -9.546875 C 6.660156 -9.25 7.105469 -9.210938 7.398438 -9.472656 C 7.695312 -9.691406 7.734375 -10.175781 7.511719 -10.46875 C 6.105469 -12.097656 4.773438 -12.0625 3.882812 -11.765625 C 1.035156 -10.765625 -0.886719 -5.289062 -0.960938 -2.773438 C -1 -1.738281 -0.703125 -1.074219 -0.109375 -0.851562 C 0.8125 -0.480469 1.738281 -1.480469 2.035156 -1.8125 C 3.292969 -3.183594 4.441406 -4.660156 5.253906 -5.808594 C 5.660156 -1.589844 6.660156 0.519531 8.324219 0.886719 C 8.472656 0.886719 8.621094 0.925781 8.769531 0.925781 C 11.285156 0.925781 13.984375 -3.476562 15.796875 -7.25 C 15.984375 -7.621094 15.835938 -8.027344 15.464844 -8.214844 Z M 15.464844 -8.214844 "/></g></g></g><g fill="#ffffff" fill-opacity="1"><g transform="translate(206.217676, 197.624987)"><g/></g></g><g fill="#ffffff" fill-opacity="1"><g transform="translate(217.575467, 197.624987)"><g><path d="M 36.109375 -8.433594 C 35.886719 -8.769531 35.445312 -8.84375 35.148438 -8.621094 C 31.375 -5.957031 27.96875 -3.402344 24.863281 -1 C 22.753906 -4.476562 17.128906 -6.769531 9.621094 -9.804688 C 8.65625 -10.175781 7.695312 -10.582031 6.695312 -10.988281 C 3.738281 -12.171875 2.699219 -14.023438 3.515625 -16.574219 C 4.625 -20.125 9.285156 -24.824219 15.613281 -28.859375 C 21.644531 -32.667969 27.5625 -34.816406 30.339844 -34.1875 C 31.226562 -34 32.226562 -33.484375 31.929688 -31.410156 C 31.855469 -31.039062 32.152344 -30.671875 32.519531 -30.597656 C 32.929688 -30.558594 33.296875 -30.820312 33.335938 -31.226562 C 33.777344 -34.371094 31.855469 -35.296875 30.671875 -35.589844 C 23.9375 -37.109375 4.882812 -25.675781 2.144531 -17.019531 C 1.148438 -13.761719 2.554688 -11.136719 6.140625 -9.65625 C 7.140625 -9.25 8.140625 -8.84375 9.101562 -8.472656 C 17.167969 -5.214844 22.125 -3.070312 23.753906 -0.148438 C 10.65625 10.101562 3.996094 17.425781 5.105469 20.570312 C 5.289062 21.089844 5.84375 21.867188 7.398438 21.867188 C 7.511719 21.867188 7.660156 21.867188 7.769531 21.867188 C 12.726562 21.496094 23.53125 14.097656 25.601562 3.625 C 25.859375 2.40625 25.789062 1.292969 25.492188 0.296875 C 28.636719 -2.109375 32.113281 -4.699219 35.960938 -7.4375 C 36.292969 -7.695312 36.367188 -8.140625 36.109375 -8.433594 Z M 24.195312 3.367188 C 22.199219 13.355469 11.726562 20.125 7.660156 20.460938 C 7.289062 20.460938 6.585938 20.460938 6.472656 20.089844 C 6.066406 18.980469 8.140625 15.835938 11.765625 12.171875 C 14.835938 9.027344 19.015625 5.363281 24.234375 1.257812 C 24.382812 1.925781 24.34375 2.589844 24.195312 3.367188 Z M 24.195312 3.367188 "/></g></g></g><g fill="#ffffff" fill-opacity="1"><g transform="translate(252.277774, 197.624987)"><g><path d="M 15.464844 -8.214844 C 15.132812 -8.363281 14.6875 -8.214844 14.539062 -7.878906 C 11.726562 -2.144531 9.621094 -0.332031 8.621094 -0.519531 C 8.214844 -0.59375 6.882812 -1.367188 6.546875 -7.84375 C 6.546875 -8.140625 6.328125 -8.398438 6.066406 -8.472656 C 5.773438 -8.546875 5.4375 -8.472656 5.289062 -8.214844 C 5.070312 -7.953125 4.847656 -7.660156 4.625 -7.324219 C 3.699219 -6.066406 2.480469 -4.367188 1 -2.773438 C 0.777344 -2.515625 0.59375 -2.367188 0.480469 -2.292969 C 0.222656 -3.589844 1.589844 -8.546875 3.773438 -10.101562 C 4.402344 -10.542969 5.253906 -10.878906 6.402344 -9.546875 C 6.660156 -9.25 7.105469 -9.210938 7.398438 -9.472656 C 7.695312 -9.691406 7.734375 -10.175781 7.511719 -10.46875 C 6.105469 -12.097656 4.773438 -12.0625 3.882812 -11.765625 C 1.035156 -10.765625 -0.886719 -5.289062 -0.960938 -2.773438 C -1 -1.738281 -0.703125 -1.074219 -0.109375 -0.851562 C 0.8125 -0.480469 1.738281 -1.480469 2.035156 -1.8125 C 3.292969 -3.183594 4.441406 -4.660156 5.253906 -5.808594 C 5.660156 -1.589844 6.660156 0.519531 8.324219 0.886719 C 8.472656 0.886719 8.621094 0.925781 8.769531 0.925781 C 11.285156 0.925781 13.984375 -3.476562 15.796875 -7.25 C 15.984375 -7.621094 15.835938 -8.027344 15.464844 -8.214844 Z M 15.464844 -8.214844 "/></g></g></g><g fill="#ffffff" fill-opacity="1"><g transform="translate(266.040312, 197.624987)"><g><path d="M 16.945312 -8.175781 C 16.722656 -8.507812 16.277344 -8.582031 15.984375 -8.398438 C 13.394531 -6.734375 10.0625 -4.550781 6.621094 -1.738281 C 6.992188 -4.292969 7.363281 -6.992188 7.734375 -9.878906 C 7.769531 -10.25 7.546875 -10.542969 7.25 -10.65625 C 6.917969 -10.765625 6.546875 -10.617188 6.402344 -10.324219 C 5.773438 -9.285156 4.03125 -6.621094 2.589844 -4.699219 C 1.996094 -3.957031 1.664062 -3.664062 1.480469 -3.550781 C 1.109375 -4.734375 2.257812 -10.027344 4.585938 -12.097656 C 5.511719 -12.949219 6.363281 -12.949219 7.289062 -12.136719 C 7.585938 -11.875 8.027344 -11.875 8.289062 -12.171875 C 8.546875 -12.46875 8.507812 -12.914062 8.25 -13.171875 C 6.769531 -14.503906 5.4375 -14.28125 4.585938 -13.835938 C 1.589844 -12.355469 -0.222656 -6.214844 0.0351562 -3.738281 C 0.109375 -2.625 0.628906 -2.21875 1.035156 -2.109375 C 2.035156 -1.851562 2.996094 -2.886719 3.699219 -3.847656 C 4.441406 -4.808594 5.214844 -5.917969 5.917969 -6.917969 C 5.625 -4.585938 5.289062 -2.40625 4.957031 -0.332031 C 1 3.109375 -2.960938 7.4375 -5.957031 12.914062 C -8.214844 16.980469 -8.953125 20.421875 -9.175781 22.570312 C -9.472656 25.378906 -9.0625 27.710938 -8.027344 28.96875 C -7.472656 29.671875 -6.769531 30.042969 -5.992188 30.042969 C -5.773438 30.042969 -5.511719 30.003906 -5.253906 29.929688 C -1.703125 28.933594 2.960938 20.496094 6.253906 0.40625 C 10.101562 -2.886719 13.875 -5.328125 16.722656 -7.175781 C 17.054688 -7.398438 17.167969 -7.84375 16.945312 -8.175781 Z M -5.625 28.5625 C -6.140625 28.710938 -6.546875 28.5625 -6.917969 28.082031 C -8.324219 26.34375 -8.546875 20.535156 -4.734375 13.613281 C -2.144531 8.917969 1.183594 5.070312 4.550781 1.925781 C 1.183594 21.3125 -3.253906 27.894531 -5.625 28.5625 Z M -5.625 28.5625 "/></g></g></g><g fill="#ffffff" fill-opacity="1"><g transform="translate(281.282674, 197.624987)"><g><path d="M 15.464844 -8.214844 C 15.132812 -8.363281 14.6875 -8.214844 14.539062 -7.878906 C 11.726562 -2.144531 9.621094 -0.332031 8.621094 -0.519531 C 8.214844 -0.59375 6.882812 -1.367188 6.546875 -7.84375 C 6.546875 -8.140625 6.328125 -8.398438 6.066406 -8.472656 C 5.773438 -8.546875 5.4375 -8.472656 5.289062 -8.214844 C 5.070312 -7.953125 4.847656 -7.660156 4.625 -7.324219 C 3.699219 -6.066406 2.480469 -4.367188 1 -2.773438 C 0.777344 -2.515625 0.59375 -2.367188 0.480469 -2.292969 C 0.222656 -3.589844 1.589844 -8.546875 3.773438 -10.101562 C 4.402344 -10.542969 5.253906 -10.878906 6.402344 -9.546875 C 6.660156 -9.25 7.105469 -9.210938 7.398438 -9.472656 C 7.695312 -9.691406 7.734375 -10.175781 7.511719 -10.46875 C 6.105469 -12.097656 4.773438 -12.0625 3.882812 -11.765625 C 1.035156 -10.765625 -0.886719 -5.289062 -0.960938 -2.773438 C -1 -1.738281 -0.703125 -1.074219 -0.109375 -0.851562 C 0.8125 -0.480469 1.738281 -1.480469 2.035156 -1.8125 C 3.292969 -3.183594 4.441406 -4.660156 5.253906 -5.808594 C 5.660156 -1.589844 6.660156 0.519531 8.324219 0.886719 C 8.472656 0.886719 8.621094 0.925781 8.769531 0.925781 C 11.285156 0.925781 13.984375 -3.476562 15.796875 -7.25 C 15.984375 -7.621094 15.835938 -8.027344 15.464844 -8.214844 Z M 15.464844 -8.214844 "/></g></g></g><g fill="#ffffff" fill-opacity="1"><g transform="translate(295.045201, 197.624987)"><g><path d="M 16.242188 -8.363281 C 15.871094 -8.546875 15.429688 -8.398438 15.28125 -8.027344 C 11.023438 0.925781 6.992188 5.511719 6.105469 5.363281 C 6.03125 5.328125 4.734375 4.070312 8.917969 -8.769531 C 9.027344 -9.101562 9.285156 -9.878906 8.695312 -10.285156 C 8.140625 -10.730469 7.511719 -10.324219 6.472656 -9.621094 C 5.363281 -8.917969 3.847656 -7.917969 2.664062 -8.066406 C 6.4375 -14.578125 6.066406 -16.019531 5.214844 -16.574219 C 3.882812 -17.351562 1.960938 -15.09375 1.074219 -13.800781 C -0.738281 -10.988281 -0.703125 -8.433594 1.222656 -7.140625 C 3.183594 -5.773438 5.734375 -7.4375 7.25 -8.433594 C 7.289062 -8.472656 7.289062 -8.472656 7.324219 -8.507812 C 5.882812 -3.957031 4.957031 -0.371094 4.625 2.109375 C 4.21875 4.847656 4.515625 6.289062 5.550781 6.695312 C 5.734375 6.734375 5.882812 6.769531 6.066406 6.769531 C 9.027344 6.769531 14.171875 -2.332031 16.574219 -7.398438 C 16.722656 -7.769531 16.574219 -8.214844 16.242188 -8.363281 Z M 1.292969 -10.914062 C 1.8125 -12.914062 3.550781 -14.761719 4.328125 -15.207031 C 4.253906 -14.613281 3.847656 -12.949219 1.480469 -8.84375 C 1.222656 -9.25 1.035156 -9.878906 1.292969 -10.914062 Z M 1.292969 -10.914062 "/></g></g></g><g fill="#ffffff" fill-opacity="1"><g transform="translate(102.378946, 282.788331)"><g><path d="M 2.640625 0.09375 C 2.191406 0.09375 1.726562 0.0195312 1.25 -0.125 C 0.78125 -0.28125 0.441406 -0.429688 0.234375 -0.578125 L 0.234375 -2.71875 L 0.875 -2.78125 C 0.925781 -2.363281 0.984375 -2.007812 1.046875 -1.71875 C 1.109375 -1.4375 1.207031 -1.148438 1.34375 -0.859375 C 1.769531 -0.660156 2.265625 -0.5625 2.828125 -0.5625 C 3.304688 -0.5625 3.695312 -0.691406 4 -0.953125 C 4.300781 -1.222656 4.453125 -1.597656 4.453125 -2.078125 C 4.453125 -2.421875 4.363281 -2.707031 4.1875 -2.9375 C 4.019531 -3.164062 3.8125 -3.351562 3.5625 -3.5 C 3.320312 -3.644531 2.992188 -3.804688 2.578125 -3.984375 C 2.109375 -4.179688 1.722656 -4.375 1.421875 -4.5625 C 1.117188 -4.75 0.863281 -5 0.65625 -5.3125 C 0.445312 -5.625 0.34375 -6.015625 0.34375 -6.484375 C 0.34375 -7.191406 0.578125 -7.75 1.046875 -8.15625 C 1.523438 -8.570312 2.1875 -8.78125 3.03125 -8.78125 C 3.457031 -8.78125 3.859375 -8.707031 4.234375 -8.5625 C 4.617188 -8.414062 4.921875 -8.21875 5.140625 -7.96875 C 5.359375 -7.71875 5.46875 -7.441406 5.46875 -7.140625 C 5.46875 -6.585938 5.253906 -6.3125 4.828125 -6.3125 C 4.628906 -6.3125 4.472656 -6.335938 4.359375 -6.390625 C 4.253906 -6.453125 4.15625 -6.546875 4.0625 -6.671875 C 4.25 -6.847656 4.34375 -7.066406 4.34375 -7.328125 C 4.34375 -7.554688 4.222656 -7.742188 3.984375 -7.890625 C 3.753906 -8.046875 3.429688 -8.125 3.015625 -8.125 C 2.523438 -8.125 2.144531 -8.007812 1.875 -7.78125 C 1.601562 -7.5625 1.46875 -7.238281 1.46875 -6.8125 C 1.46875 -6.5 1.546875 -6.238281 1.703125 -6.03125 C 1.867188 -5.820312 2.066406 -5.648438 2.296875 -5.515625 C 2.535156 -5.378906 2.863281 -5.226562 3.28125 -5.0625 C 3.78125 -4.84375 4.1875 -4.632812 4.5 -4.4375 C 4.8125 -4.25 5.078125 -3.984375 5.296875 -3.640625 C 5.515625 -3.304688 5.625 -2.878906 5.625 -2.359375 C 5.625 -1.566406 5.347656 -0.957031 4.796875 -0.53125 C 4.253906 -0.113281 3.535156 0.09375 2.640625 0.09375 Z M 2.640625 0.09375 "/></g></g></g><g fill="#ffffff" fill-opacity="1"><g transform="translate(110.593123, 282.788331)"><g><path d="M 3.90625 0.09375 C 2.625 0.09375 1.707031 -0.285156 1.15625 -1.046875 C 0.613281 -1.816406 0.34375 -2.914062 0.34375 -4.34375 C 0.34375 -5.78125 0.613281 -6.878906 1.15625 -7.640625 C 1.707031 -8.398438 2.625 -8.78125 3.90625 -8.78125 C 5.164062 -8.78125 6.070312 -8.394531 6.625 -7.625 C 7.175781 -6.863281 7.453125 -5.765625 7.453125 -4.328125 C 7.453125 -2.898438 7.175781 -1.804688 6.625 -1.046875 C 6.070312 -0.285156 5.164062 0.09375 3.90625 0.09375 Z M 3.90625 -0.546875 C 4.519531 -0.546875 4.988281 -0.710938 5.3125 -1.046875 C 5.632812 -1.378906 5.851562 -1.816406 5.96875 -2.359375 C 6.082031 -2.910156 6.140625 -3.566406 6.140625 -4.328125 C 6.140625 -5.097656 6.082031 -5.753906 5.96875 -6.296875 C 5.851562 -6.847656 5.632812 -7.289062 5.3125 -7.625 C 4.988281 -7.96875 4.519531 -8.140625 3.90625 -8.140625 C 3.289062 -8.140625 2.816406 -7.96875 2.484375 -7.625 C 2.148438 -7.289062 1.925781 -6.851562 1.8125 -6.3125 C 1.707031 -5.769531 1.65625 -5.113281 1.65625 -4.34375 C 1.65625 -3.15625 1.804688 -2.222656 2.109375 -1.546875 C 2.421875 -0.878906 3.019531 -0.546875 3.90625 -0.546875 Z M 3.90625 -0.546875 "/></g></g></g><g fill="#ffffff" fill-opacity="1"><g transform="translate(120.704719, 282.788331)"><g><path d="M 0.46875 -0.484375 C 0.695312 -0.503906 0.925781 -0.546875 1.15625 -0.609375 C 1.394531 -0.679688 1.5625 -0.753906 1.65625 -0.828125 L 1.65625 -7.859375 C 1.320312 -8.023438 0.898438 -8.140625 0.390625 -8.203125 L 0.453125 -8.671875 L 6.25 -8.671875 L 6.359375 -6.6875 C 6.242188 -6.644531 6.125 -6.625 6 -6.625 C 5.90625 -6.625 5.835938 -6.632812 5.796875 -6.65625 C 5.691406 -7.195312 5.488281 -7.640625 5.1875 -7.984375 L 2.8125 -7.984375 L 2.8125 -4.625 L 4.28125 -4.6875 C 4.46875 -4.695312 4.617188 -4.789062 4.734375 -4.96875 C 4.859375 -5.15625 4.945312 -5.359375 5 -5.578125 L 5.421875 -5.578125 L 5.421875 -3 L 5 -3 C 4.9375 -3.3125 4.84375 -3.546875 4.71875 -3.703125 C 4.601562 -3.859375 4.453125 -3.941406 4.265625 -3.953125 L 2.8125 -4.03125 L 2.8125 -0.828125 C 3.082031 -0.660156 3.5 -0.546875 4.0625 -0.484375 L 4.015625 0 L 0.390625 0 Z M 0.46875 -0.484375 "/></g></g></g><g fill="#ffffff" fill-opacity="1"><g transform="translate(129.646673, 282.788331)"><g><path d="M 1.875 -0.484375 C 2.382812 -0.546875 2.78125 -0.660156 3.0625 -0.828125 L 3.0625 -8.09375 C 2.382812 -8.082031 1.816406 -8.050781 1.359375 -8 C 1.203125 -7.78125 1.082031 -7.53125 1 -7.25 C 0.914062 -6.96875 0.867188 -6.710938 0.859375 -6.484375 C 0.796875 -6.472656 0.703125 -6.46875 0.578125 -6.46875 C 0.441406 -6.46875 0.34375 -6.472656 0.28125 -6.484375 L 0.28125 -8.71875 C 1.476562 -8.6875 2.585938 -8.671875 3.609375 -8.671875 C 4.296875 -8.671875 4.957031 -8.675781 5.59375 -8.6875 C 6.226562 -8.695312 6.679688 -8.707031 6.953125 -8.71875 L 6.953125 -6.484375 C 6.890625 -6.472656 6.800781 -6.46875 6.6875 -6.46875 C 6.550781 -6.46875 6.453125 -6.472656 6.390625 -6.484375 C 6.328125 -7.109375 6.171875 -7.609375 5.921875 -7.984375 C 5.347656 -8.046875 4.773438 -8.082031 4.203125 -8.09375 L 4.203125 -0.828125 C 4.503906 -0.660156 4.925781 -0.546875 5.46875 -0.484375 L 5.40625 0 L 1.796875 0 Z M 1.875 -0.484375 "/></g></g></g><g fill="#ffffff" fill-opacity="1"><g transform="translate(139.212431, 282.788331)"><g><path d="M 0.828125 -7.859375 C 0.640625 -8.015625 0.378906 -8.128906 0.046875 -8.203125 L 0.109375 -8.671875 L 3.265625 -8.671875 L 3.1875 -8.203125 C 2.738281 -8.140625 2.363281 -8.023438 2.0625 -7.859375 L 3.78125 -2.0625 L 5.71875 -8.671875 L 6.140625 -8.671875 L 8.21875 -2.09375 L 9.765625 -7.859375 C 9.421875 -8.035156 9.023438 -8.148438 8.578125 -8.203125 L 8.640625 -8.671875 L 11.5 -8.671875 L 11.421875 -8.203125 C 11.140625 -8.148438 10.878906 -8.039062 10.640625 -7.875 L 8.390625 0 L 7.78125 0 L 5.765625 -6 L 3.953125 0 L 3.328125 0 Z M 0.828125 -7.859375 "/></g></g></g><g fill="#ffffff" fill-opacity="1"><g transform="translate(153.092874, 282.788331)"><g><path d="M 0.078125 -0.484375 C 0.273438 -0.515625 0.441406 -0.550781 0.578125 -0.59375 C 0.722656 -0.632812 0.863281 -0.707031 1 -0.8125 L 3.4375 -8.671875 L 4.21875 -8.671875 L 6.890625 -0.8125 C 7.109375 -0.65625 7.394531 -0.546875 7.75 -0.484375 L 7.703125 0 L 4.453125 0 L 4.515625 -0.484375 C 5.015625 -0.546875 5.410156 -0.660156 5.703125 -0.828125 L 5.046875 -2.796875 L 2.421875 -2.796875 L 1.8125 -0.828125 C 2.101562 -0.660156 2.523438 -0.546875 3.078125 -0.484375 L 3.03125 0 L 0.015625 0 Z M 4.828125 -3.46875 L 3.671875 -6.859375 L 2.625 -3.46875 Z M 4.828125 -3.46875 "/></g></g></g><g fill="#ffffff" fill-opacity="1"><g transform="translate(163.204473, 282.788331)"><g><path d="M 0.46875 -0.484375 C 0.96875 -0.546875 1.363281 -0.660156 1.65625 -0.828125 L 1.65625 -7.859375 C 1.351562 -8.023438 0.929688 -8.140625 0.390625 -8.203125 L 0.453125 -8.671875 L 3.796875 -8.671875 C 5.773438 -8.671875 6.765625 -7.910156 6.765625 -6.390625 C 6.765625 -5.816406 6.617188 -5.347656 6.328125 -4.984375 C 6.046875 -4.628906 5.597656 -4.378906 4.984375 -4.234375 C 5.140625 -4.128906 5.28125 -3.984375 5.40625 -3.796875 C 5.539062 -3.617188 5.664062 -3.394531 5.78125 -3.125 L 6.8125 -0.828125 C 7.070312 -0.660156 7.4375 -0.550781 7.90625 -0.5 L 7.828125 0 L 5.859375 0 L 4.734375 -2.90625 C 4.585938 -3.269531 4.457031 -3.523438 4.34375 -3.671875 C 4.238281 -3.828125 4.097656 -3.925781 3.921875 -3.96875 C 3.753906 -4.019531 3.46875 -4.046875 3.0625 -4.046875 L 2.8125 -4.046875 L 2.8125 -0.828125 C 2.9375 -0.753906 3.09375 -0.6875 3.28125 -0.625 C 3.476562 -0.570312 3.738281 -0.523438 4.0625 -0.484375 L 4 0 L 0.40625 0 Z M 3.21875 -4.640625 C 4.03125 -4.640625 4.628906 -4.785156 5.015625 -5.078125 C 5.410156 -5.367188 5.609375 -5.8125 5.609375 -6.40625 C 5.609375 -6.976562 5.453125 -7.410156 5.140625 -7.703125 C 4.835938 -7.992188 4.382812 -8.140625 3.78125 -8.140625 C 3.488281 -8.140625 3.164062 -8.109375 2.8125 -8.046875 L 2.8125 -4.640625 Z M 3.21875 -4.640625 "/></g></g></g><g fill="#ffffff" fill-opacity="1"><g transform="translate(173.498021, 282.788331)"><g><path d="M 0.46875 -0.484375 C 0.695312 -0.503906 0.925781 -0.546875 1.15625 -0.609375 C 1.394531 -0.679688 1.5625 -0.753906 1.65625 -0.828125 L 1.65625 -7.859375 C 1.332031 -8.023438 0.910156 -8.140625 0.390625 -8.203125 L 0.453125 -8.671875 L 6.25 -8.671875 L 6.359375 -6.6875 C 6.242188 -6.644531 6.125 -6.625 6 -6.625 C 5.945312 -6.625 5.878906 -6.632812 5.796875 -6.65625 C 5.679688 -7.226562 5.5 -7.671875 5.25 -7.984375 L 2.8125 -7.984375 L 2.8125 -4.734375 L 4.28125 -4.796875 C 4.457031 -4.804688 4.601562 -4.890625 4.71875 -5.046875 C 4.832031 -5.203125 4.925781 -5.410156 5 -5.671875 L 5.421875 -5.671875 L 5.421875 -3.09375 L 5 -3.09375 C 4.894531 -3.46875 4.796875 -3.71875 4.703125 -3.84375 C 4.609375 -3.976562 4.453125 -4.050781 4.234375 -4.0625 L 2.8125 -4.140625 L 2.8125 -0.75 L 5.578125 -0.75 C 5.835938 -1.113281 6.023438 -1.601562 6.140625 -2.21875 C 6.242188 -2.238281 6.328125 -2.25 6.390625 -2.25 C 6.429688 -2.25 6.519531 -2.238281 6.65625 -2.21875 L 6.53125 0 L 0.390625 0 Z M 0.46875 -0.484375 "/></g></g></g><g fill="#ffffff" fill-opacity="1"><g transform="translate(182.842853, 282.788331)"><g/></g></g><g fill="#ffffff" fill-opacity="1"><g transform="translate(188.028961, 282.788331)"><g><path d="M 0.46875 -0.484375 C 0.726562 -0.515625 0.945312 -0.550781 1.125 -0.59375 C 1.3125 -0.632812 1.488281 -0.707031 1.65625 -0.8125 L 1.65625 -7.859375 C 1.351562 -8.015625 0.929688 -8.128906 0.390625 -8.203125 L 0.453125 -8.671875 L 3.25 -8.671875 C 4.769531 -8.671875 5.90625 -8.320312 6.65625 -7.625 C 7.40625 -6.9375 7.78125 -5.835938 7.78125 -4.328125 C 7.78125 -2.804688 7.398438 -1.703125 6.640625 -1.015625 C 5.890625 -0.335938 4.734375 0 3.171875 0 L 0.40625 0 Z M 3.390625 -0.640625 C 4.429688 -0.640625 5.207031 -0.914062 5.71875 -1.46875 C 6.226562 -2.03125 6.484375 -2.988281 6.484375 -4.34375 C 6.484375 -5.6875 6.234375 -6.632812 5.734375 -7.1875 C 5.234375 -7.738281 4.46875 -8.015625 3.4375 -8.015625 L 2.8125 -8.015625 L 2.8125 -0.6875 C 2.957031 -0.65625 3.148438 -0.640625 3.390625 -0.640625 Z M 3.390625 -0.640625 "/></g></g></g><g fill="#ffffff" fill-opacity="1"><g transform="translate(198.478457, 282.788331)"><g><path d="M 0.46875 -0.484375 C 0.695312 -0.503906 0.925781 -0.546875 1.15625 -0.609375 C 1.394531 -0.679688 1.5625 -0.753906 1.65625 -0.828125 L 1.65625 -7.859375 C 1.332031 -8.023438 0.910156 -8.140625 0.390625 -8.203125 L 0.453125 -8.671875 L 6.25 -8.671875 L 6.359375 -6.6875 C 6.242188 -6.644531 6.125 -6.625 6 -6.625 C 5.945312 -6.625 5.878906 -6.632812 5.796875 -6.65625 C 5.679688 -7.226562 5.5 -7.671875 5.25 -7.984375 L 2.8125 -7.984375 L 2.8125 -4.734375 L 4.28125 -4.796875 C 4.457031 -4.804688 4.601562 -4.890625 4.71875 -5.046875 C 4.832031 -5.203125 4.925781 -5.410156 5 -5.671875 L 5.421875 -5.671875 L 5.421875 -3.09375 L 5 -3.09375 C 4.894531 -3.46875 4.796875 -3.71875 4.703125 -3.84375 C 4.609375 -3.976562 4.453125 -4.050781 4.234375 -4.0625 L 2.8125 -4.140625 L 2.8125 -0.75 L 5.578125 -0.75 C 5.835938 -1.113281 6.023438 -1.601562 6.140625 -2.21875 C 6.242188 -2.238281 6.328125 -2.25 6.390625 -2.25 C 6.429688 -2.25 6.519531 -2.238281 6.65625 -2.21875 L 6.53125 0 L 0.390625 0 Z M 0.46875 -0.484375 "/></g></g></g><g fill="#ffffff" fill-opacity="1"><g transform="translate(207.82329, 282.788331)"><g><path d="M 0.84375 -7.859375 C 0.664062 -8.015625 0.398438 -8.128906 0.046875 -8.203125 L 0.109375 -8.671875 L 3.265625 -8.671875 L 3.1875 -8.203125 C 2.738281 -8.140625 2.363281 -8.023438 2.0625 -7.859375 L 4.109375 -1.984375 L 5.96875 -7.859375 C 5.625 -8.035156 5.226562 -8.148438 4.78125 -8.203125 L 4.84375 -8.671875 L 7.703125 -8.671875 L 7.625 -8.203125 C 7.332031 -8.148438 7.066406 -8.035156 6.828125 -7.859375 L 4.28125 0 L 3.65625 0 Z M 0.84375 -7.859375 "/></g></g></g><g fill="#ffffff" fill-opacity="1"><g transform="translate(217.921888, 282.788331)"><g><path d="M 0.46875 -0.484375 C 0.695312 -0.503906 0.925781 -0.546875 1.15625 -0.609375 C 1.394531 -0.679688 1.5625 -0.753906 1.65625 -0.828125 L 1.65625 -7.859375 C 1.332031 -8.023438 0.910156 -8.140625 0.390625 -8.203125 L 0.453125 -8.671875 L 6.25 -8.671875 L 6.359375 -6.6875 C 6.242188 -6.644531 6.125 -6.625 6 -6.625 C 5.945312 -6.625 5.878906 -6.632812 5.796875 -6.65625 C 5.679688 -7.226562 5.5 -7.671875 5.25 -7.984375 L 2.8125 -7.984375 L 2.8125 -4.734375 L 4.28125 -4.796875 C 4.457031 -4.804688 4.601562 -4.890625 4.71875 -5.046875 C 4.832031 -5.203125 4.925781 -5.410156 5 -5.671875 L 5.421875 -5.671875 L 5.421875 -3.09375 L 5 -3.09375 C 4.894531 -3.46875 4.796875 -3.71875 4.703125 -3.84375 C 4.609375 -3.976562 4.453125 -4.050781 4.234375 -4.0625 L 2.8125 -4.140625 L 2.8125 -0.75 L 5.578125 -0.75 C 5.835938 -1.113281 6.023438 -1.601562 6.140625 -2.21875 C 6.242188 -2.238281 6.328125 -2.25 6.390625 -2.25 C 6.429688 -2.25 6.519531 -2.238281 6.65625 -2.21875 L 6.53125 0 L 0.390625 0 Z M 0.46875 -0.484375 "/></g></g></g><g fill="#ffffff" fill-opacity="1"><g transform="translate(227.26672, 282.788331)"><g><path d="M 0.46875 -0.484375 C 0.976562 -0.546875 1.367188 -0.660156 1.640625 -0.828125 L 1.640625 -7.859375 C 1.316406 -8.023438 0.898438 -8.140625 0.390625 -8.203125 L 0.453125 -8.671875 L 4.0625 -8.671875 L 3.984375 -8.203125 C 3.515625 -8.140625 3.117188 -8.023438 2.796875 -7.859375 L 2.796875 -0.75 L 5.21875 -0.75 C 5.488281 -1.132812 5.675781 -1.625 5.78125 -2.21875 C 5.851562 -2.25 5.929688 -2.265625 6.015625 -2.265625 C 6.109375 -2.265625 6.207031 -2.25 6.3125 -2.21875 L 6.1875 0 L 0.390625 0 Z M 0.46875 -0.484375 "/></g></g></g><g fill="#ffffff" fill-opacity="1"><g transform="translate(236.104706, 282.788331)"><g><path d="M 3.90625 0.09375 C 2.625 0.09375 1.707031 -0.285156 1.15625 -1.046875 C 0.613281 -1.816406 0.34375 -2.914062 0.34375 -4.34375 C 0.34375 -5.78125 0.613281 -6.878906 1.15625 -7.640625 C 1.707031 -8.398438 2.625 -8.78125 3.90625 -8.78125 C 5.164062 -8.78125 6.070312 -8.394531 6.625 -7.625 C 7.175781 -6.863281 7.453125 -5.765625 7.453125 -4.328125 C 7.453125 -2.898438 7.175781 -1.804688 6.625 -1.046875 C 6.070312 -0.285156 5.164062 0.09375 3.90625 0.09375 Z M 3.90625 -0.546875 C 4.519531 -0.546875 4.988281 -0.710938 5.3125 -1.046875 C 5.632812 -1.378906 5.851562 -1.816406 5.96875 -2.359375 C 6.082031 -2.910156 6.140625 -3.566406 6.140625 -4.328125 C 6.140625 -5.097656 6.082031 -5.753906 5.96875 -6.296875 C 5.851562 -6.847656 5.632812 -7.289062 5.3125 -7.625 C 4.988281 -7.96875 4.519531 -8.140625 3.90625 -8.140625 C 3.289062 -8.140625 2.816406 -7.96875 2.484375 -7.625 C 2.148438 -7.289062 1.925781 -6.851562 1.8125 -6.3125 C 1.707031 -5.769531 1.65625 -5.113281 1.65625 -4.34375 C 1.65625 -3.15625 1.804688 -2.222656 2.109375 -1.546875 C 2.421875 -0.878906 3.019531 -0.546875 3.90625 -0.546875 Z M 3.90625 -0.546875 "/></g></g></g><g fill="#ffffff" fill-opacity="1"><g transform="translate(246.216304, 282.788331)"><g><path d="M 0.484375 -0.484375 C 0.972656 -0.546875 1.363281 -0.660156 1.65625 -0.828125 L 1.65625 -7.859375 C 1.320312 -8.023438 0.898438 -8.140625 0.390625 -8.203125 L 0.453125 -8.671875 L 3.796875 -8.671875 C 4.773438 -8.671875 5.5 -8.460938 5.96875 -8.046875 C 6.445312 -7.640625 6.6875 -7.046875 6.6875 -6.265625 C 6.6875 -5.359375 6.390625 -4.722656 5.796875 -4.359375 C 5.203125 -3.992188 4.34375 -3.8125 3.21875 -3.8125 L 2.8125 -3.8125 L 2.8125 -0.828125 C 3.09375 -0.660156 3.507812 -0.546875 4.0625 -0.484375 L 4.015625 0 L 0.40625 0 Z M 3.21875 -4.390625 C 3.945312 -4.390625 4.507812 -4.539062 4.90625 -4.84375 C 5.3125 -5.15625 5.515625 -5.640625 5.515625 -6.296875 C 5.515625 -7.515625 4.898438 -8.125 3.671875 -8.125 C 3.398438 -8.125 3.113281 -8.097656 2.8125 -8.046875 L 2.8125 -4.390625 Z M 3.21875 -4.390625 "/></g></g></g><g fill="#ffffff" fill-opacity="1"><g transform="translate(255.470168, 282.788331)"><g><path d="M 0.46875 -0.484375 C 0.695312 -0.503906 0.925781 -0.546875 1.15625 -0.609375 C 1.394531 -0.679688 1.5625 -0.753906 1.65625 -0.828125 L 1.65625 -7.859375 C 1.332031 -8.023438 0.910156 -8.140625 0.390625 -8.203125 L 0.453125 -8.671875 L 6.25 -8.671875 L 6.359375 -6.6875 C 6.242188 -6.644531 6.125 -6.625 6 -6.625 C 5.945312 -6.625 5.878906 -6.632812 5.796875 -6.65625 C 5.679688 -7.226562 5.5 -7.671875 5.25 -7.984375 L 2.8125 -7.984375 L 2.8125 -4.734375 L 4.28125 -4.796875 C 4.457031 -4.804688 4.601562 -4.890625 4.71875 -5.046875 C 4.832031 -5.203125 4.925781 -5.410156 5 -5.671875 L 5.421875 -5.671875 L 5.421875 -3.09375 L 5 -3.09375 C 4.894531 -3.46875 4.796875 -3.71875 4.703125 -3.84375 C 4.609375 -3.976562 4.453125 -4.050781 4.234375 -4.0625 L 2.8125 -4.140625 L 2.8125 -0.75 L 5.578125 -0.75 C 5.835938 -1.113281 6.023438 -1.601562 6.140625 -2.21875 C 6.242188 -2.238281 6.328125 -2.25 6.390625 -2.25 C 6.429688 -2.25 6.519531 -2.238281 6.65625 -2.21875 L 6.53125 0 L 0.390625 0 Z M 0.46875 -0.484375 "/></g></g></g><g fill="#ffffff" fill-opacity="1"><g transform="translate(264.815001, 282.788331)"><g><path d="M 0.46875 -0.484375 C 0.96875 -0.546875 1.363281 -0.660156 1.65625 -0.828125 L 1.65625 -7.859375 C 1.351562 -8.023438 0.929688 -8.140625 0.390625 -8.203125 L 0.453125 -8.671875 L 3.796875 -8.671875 C 5.773438 -8.671875 6.765625 -7.910156 6.765625 -6.390625 C 6.765625 -5.816406 6.617188 -5.347656 6.328125 -4.984375 C 6.046875 -4.628906 5.597656 -4.378906 4.984375 -4.234375 C 5.140625 -4.128906 5.28125 -3.984375 5.40625 -3.796875 C 5.539062 -3.617188 5.664062 -3.394531 5.78125 -3.125 L 6.8125 -0.828125 C 7.070312 -0.660156 7.4375 -0.550781 7.90625 -0.5 L 7.828125 0 L 5.859375 0 L 4.734375 -2.90625 C 4.585938 -3.269531 4.457031 -3.523438 4.34375 -3.671875 C 4.238281 -3.828125 4.097656 -3.925781 3.921875 -3.96875 C 3.753906 -4.019531 3.46875 -4.046875 3.0625 -4.046875 L 2.8125 -4.046875 L 2.8125 -0.828125 C 2.9375 -0.753906 3.09375 -0.6875 3.28125 -0.625 C 3.476562 -0.570312 3.738281 -0.523438 4.0625 -0.484375 L 4 0 L 0.40625 0 Z M 3.21875 -4.640625 C 4.03125 -4.640625 4.628906 -4.785156 5.015625 -5.078125 C 5.410156 -5.367188 5.609375 -5.8125 5.609375 -6.40625 C 5.609375 -6.976562 5.453125 -7.410156 5.140625 -7.703125 C 4.835938 -7.992188 4.382812 -8.140625 3.78125 -8.140625 C 3.488281 -8.140625 3.164062 -8.109375 2.8125 -8.046875 L 2.8125 -4.640625 Z M 3.21875 -4.640625 "/></g></g></g></svg>